<svg xmlns="http://www.w3.org/2000/svg" width="18.743" height="19.125" viewBox="0 0 18.743 19.125">
  <path id="Path_13" data-name="Path 13" d="M506-228.231H497v3.7h5.146a4.4,4.4,0,0,1-1.908,2.886,5.747,5.747,0,0,1-3.238.913,5.7,5.7,0,0,1-5.351-3.943,5.742,5.742,0,0,1-.3-1.817,5.744,5.744,0,0,1,.3-1.817A5.7,5.7,0,0,1,497-232.251a5.166,5.166,0,0,1,3.655,1.43l2.743-2.743a9.191,9.191,0,0,0-6.4-2.491,9.559,9.559,0,0,0-8.546,5.268,9.559,9.559,0,0,0-1.017,4.294,9.561,9.561,0,0,0,1.017,4.295A9.559,9.559,0,0,0,497-216.93a9.13,9.13,0,0,0,6.329-2.317,9.326,9.326,0,0,0,2.852-7.029A10.988,10.988,0,0,0,506-228.231Z" transform="translate(-487.435 236.055)" fill="#464749" fill-rule="evenodd"/>
</svg>
