<svg xmlns="http://www.w3.org/2000/svg" width="20.099" height="20.099" viewBox="0 0 20.099 20.099">
  <g id="Group_4" data-name="Group 4" transform="translate(0)">
    <path id="Path_11" data-name="Path 11" d="M305.175-239.58c2.683,0,3,.01,4.061.058a5.568,5.568,0,0,1,1.866.346,3.115,3.115,0,0,1,1.155.752,3.115,3.115,0,0,1,.752,1.155,5.562,5.562,0,0,1,.346,1.866c.048,1.06.059,1.378.059,4.061s-.01,3-.059,4.061a5.56,5.56,0,0,1-.346,1.866,3.113,3.113,0,0,1-.752,1.155,3.115,3.115,0,0,1-1.155.752,5.562,5.562,0,0,1-1.866.346c-1.06.048-1.377.059-4.061.059s-3-.01-4.061-.059a5.561,5.561,0,0,1-1.866-.346,3.113,3.113,0,0,1-1.155-.752,3.113,3.113,0,0,1-.752-1.155,5.56,5.56,0,0,1-.346-1.866c-.048-1.06-.059-1.378-.059-4.061s.01-3,.059-4.061a5.562,5.562,0,0,1,.346-1.866,3.115,3.115,0,0,1,.752-1.155,3.113,3.113,0,0,1,1.155-.752,5.566,5.566,0,0,1,1.866-.346c1.06-.048,1.378-.058,4.061-.058m0-1.811c-2.729,0-3.071.012-4.143.06a7.37,7.37,0,0,0-2.439.467,4.924,4.924,0,0,0-1.78,1.159,4.928,4.928,0,0,0-1.159,1.78,7.378,7.378,0,0,0-.467,2.439c-.049,1.072-.061,1.414-.061,4.144s.012,3.071.061,4.143a7.377,7.377,0,0,0,.467,2.439,4.927,4.927,0,0,0,1.159,1.78,4.927,4.927,0,0,0,1.78,1.159,7.378,7.378,0,0,0,2.439.467c1.072.049,1.414.061,4.143.061s3.072-.012,4.144-.061a7.378,7.378,0,0,0,2.439-.467,4.924,4.924,0,0,0,1.78-1.159,4.924,4.924,0,0,0,1.159-1.78,7.37,7.37,0,0,0,.467-2.439c.049-1.072.06-1.414.06-4.143s-.012-3.072-.06-4.144a7.37,7.37,0,0,0-.467-2.439,4.925,4.925,0,0,0-1.159-1.78,4.921,4.921,0,0,0-1.78-1.159,7.37,7.37,0,0,0-2.439-.467c-1.072-.049-1.414-.06-4.144-.06Z" transform="translate(-295.125 241.391)" fill="#464749"/>
    <path id="Path_12" data-name="Path 12" d="M320.227-221.45a5.161,5.161,0,0,0-5.16,5.161,5.16,5.16,0,0,0,5.16,5.16,5.161,5.161,0,0,0,5.161-5.16A5.161,5.161,0,0,0,320.227-221.45Zm0,8.51a3.35,3.35,0,0,1-3.35-3.35,3.35,3.35,0,0,1,3.35-3.35,3.35,3.35,0,0,1,3.35,3.35A3.35,3.35,0,0,1,320.227-212.94Z" transform="translate(-310.178 226.339)" fill="#464749"/>
    <ellipse id="Ellipse_3" data-name="Ellipse 3" cx="1.206" cy="1.206" rx="1.206" ry="1.206" transform="translate(14.208 3.479)" fill="#464749"/>
  </g>
</svg>
