<svg xmlns="http://www.w3.org/2000/svg" width="363.16" height="385.9" viewBox="0 0 363.16 385.9">
  <g id="Group_132" data-name="Group 132" transform="translate(263.606 -29.122) rotate(65)">
    <path id="Path_16" data-name="Path 16" d="M258.114,253.947a86.866,86.866,0,0,0-146.275,0L73.156,314.293A54.984,54.984,0,0,0,141.576,394.3l.71-.316a108.088,108.088,0,0,1,86.087.316,54.684,54.684,0,0,0,22.063,4.668,55.37,55.37,0,0,0,12.308-1.4A54.991,54.991,0,0,0,296.8,314.29Z" transform="translate(-19.544 -87.168)" fill="#bdd884"/>
    <g id="Path_17" data-name="Path 17" transform="translate(0 -61.986)" fill="#fff">
      <path d="M 49.62483215332031 230.3550415039062 C 45.03975296020508 230.3550415039062 40.42663192749023 229.5704650878906 35.91361999511719 228.0231323242188 C 31.44460678100586 226.4908905029297 27.16978073120117 224.2445983886719 23.20786094665527 221.3467102050781 C 19.19252586364746 218.4097442626953 15.58662033081055 214.8667297363281 12.49030017852783 210.8160552978516 C 9.285739898681641 206.6237945556641 6.679433345794678 201.9524688720703 4.743753433227539 196.9318542480469 C -5.134846687316895 171.2174835205078 5.212900161743164 143.2275848388672 27.81105995178223 134.5388641357422 C 32.36359405517578 132.7842712402344 37.13735198974609 131.894775390625 42.00046157836914 131.894775390625 C 45.48356628417969 131.894775390625 49.0050048828125 132.3556518554688 52.46699523925781 133.2645721435547 C 55.96111297607422 134.1819305419922 59.41476821899414 135.5611572265625 62.73203277587891 137.3638763427734 C 73.52877044677734 143.2363891601562 82.06005859375 153.1786651611328 86.75405883789062 165.3590545654297 C 91.44390106201172 177.5451507568359 91.78251647949219 190.6433410644531 87.70738220214844 202.2403717041016 C 83.43744659423828 214.3786773681641 74.90190124511719 223.4388122558594 63.67317962646484 227.7514801025391 C 59.18903350830078 229.4792022705078 54.46282196044922 230.3550415039062 49.62483215332031 230.3550415039062 Z" stroke="none"/>
      <path d="M 49.62483215332031 229.3550415039062 C 54.33941650390625 229.3550415039062 58.94467544555664 228.501708984375 63.31464767456055 226.8179779052734 C 74.26514434814453 222.6121673583984 82.59300231933594 213.7657012939453 86.76393127441406 201.9088592529297 C 90.76039123535156 190.5357360839844 90.42539215087891 177.6828155517578 85.82094573974609 165.7186279296875 C 81.21223449707031 153.7595367431641 72.84263610839844 144.0015258789062 62.25453186035156 138.2425079345703 C 59.00787353515625 136.4781646728516 55.62944793701172 135.1287689208984 52.21306228637695 134.2317962646484 C 48.83391952514648 133.3446197509766 45.39791870117188 132.894775390625 42.0004768371582 132.894775390625 C 37.26081848144531 132.894775390625 32.60806274414062 133.7617797851562 28.16994667053223 135.4722442626953 C 6.086318016052246 143.963134765625 -4.00366735458374 171.3734283447266 5.676804065704346 196.5721130371094 C 7.578275203704834 201.5039978027344 10.13796138763428 206.092041015625 13.28477573394775 210.2087554931641 C 16.32294654846191 214.1833648681641 19.86017608642578 217.6591491699219 23.79823303222656 220.5395812988281 C 27.67887496948242 223.3780364990234 31.86420440673828 225.5776062011719 36.23794555664062 227.0771942138672 C 40.64634704589844 228.5886688232422 45.15034866333008 229.3550415039062 49.62483215332031 229.3550415039062 M 49.62483215332031 231.3550415039062 C 30.64001846313477 231.3550415039062 11.86144638061523 218.1730041503906 3.810689687728882 197.2915954589844 C -6.268410205841064 171.0552673339844 4.338860988616943 142.4922790527344 27.45219039916992 133.60546875 C 32.15272521972656 131.7938537597656 37.05478668212891 130.894775390625 42.0004768371582 130.894775390625 C 49.1434326171875 130.894775390625 56.37574005126953 132.7714996337891 63.20950317382812 136.4852294921875 C 74.21397399902344 142.4707336425781 82.90715789794922 152.5958557128906 87.68716430664062 164.9994506835938 C 92.46369171142578 177.4107971191406 92.80371856689453 190.7536010742188 88.65083312988281 202.5718994140625 C 84.28192901611328 214.9915161132812 75.53927612304688 224.2652282714844 64.03173065185547 228.6849975585938 C 59.33325958251953 230.4953002929688 54.47243118286133 231.3550415039062 49.62483215332031 231.3550415039062 Z" stroke="none" fill="#bdd884"/>
    </g>
    <g id="Image_2" data-name="Image 2" transform="translate(-37.723 -32)" fill="#fff">
      <path d="M 176.8121490478516 150.4212493896484 C 148.4711303710938 150.4212493896484 125.4140014648438 124.0867309570312 125.4140014648438 91.71722412109375 C 125.4140014648438 59.34043884277344 148.4711303710938 32.99999237060547 176.8121490478516 32.99999237060547 C 205.1562805175781 32.99999237060547 228.2159118652344 59.34043884277344 228.2159118652344 91.71722412109375 C 228.2159118652344 124.0867309570312 205.1562805175781 150.4212493896484 176.8121490478516 150.4212493896484 Z" stroke="none"/>
      <path d="M 176.8121490478516 149.4212646484375 C 183.5708923339844 149.4212646484375 190.1346130371094 147.9071044921875 196.3209991455078 144.9208374023438 C 199.3010101318359 143.4823608398438 202.1775054931641 141.7010345458984 204.87060546875 139.6264038085938 C 207.5436248779297 137.5672454833984 210.0589294433594 135.2015838623047 212.3466339111328 132.5951690673828 C 214.6384429931641 129.9841156005859 216.7201690673828 127.1105422973633 218.5339965820312 124.0543212890625 C 220.3677062988281 120.9645919799805 221.9431762695312 117.6616592407227 223.2166442871094 114.2372894287109 C 225.870361328125 107.1014251708984 227.2159118652344 99.52458953857422 227.2159118652344 91.71722412109375 C 227.2159118652344 83.90780639648438 225.8703460693359 76.32904052734375 223.2165832519531 69.19147491455078 C 221.9430999755859 65.76628875732422 220.3676300048828 62.46259307861328 218.5338897705078 59.37214279174805 C 216.7200775146484 56.31524276733398 214.6383209228516 53.4410400390625 212.3465118408203 50.82940673828125 C 210.0587768554688 48.22244262695312 207.5434722900391 45.85630798339844 204.8704528808594 43.79670715332031 C 202.1773529052734 41.72165679931641 199.3008728027344 39.94000625610352 196.3208618164062 38.50123977661133 C 190.1345367431641 35.51442337036133 183.5708618164062 33.99999237060547 176.8121490478516 33.99999237060547 C 170.0541534423828 33.99999237060547 163.4911956787109 35.51442337036133 157.3055572509766 38.5012092590332 C 154.3258972167969 39.93995666503906 151.44970703125 41.72160720825195 148.7569274902344 43.79665756225586 C 146.0842132568359 45.85622406005859 143.5691680908203 48.22235870361328 141.2817230224609 50.82932281494141 C 138.9901580810547 53.44095993041992 136.9086456298828 56.31515884399414 135.0950164794922 59.3720588684082 C 133.2615051269531 62.46250915527344 131.6861877441406 65.76620483398438 130.4128570556641 69.19139099121094 C 127.759407043457 76.32897186279297 126.4140090942383 83.90776062011719 126.4140090942383 91.71722412109375 C 126.4140090942383 99.52462768554688 127.759391784668 107.1014938354492 130.4128112792969 114.2373580932617 C 131.6861419677734 117.6617431640625 133.2614288330078 120.9646759033203 135.0949249267578 124.0544052124023 C 136.9085388183594 127.1106414794922 138.9900207519531 129.9841918945312 141.2815704345703 132.5952606201172 C 143.5690460205078 135.2016754150391 146.0840606689453 137.5673065185547 148.7567749023438 139.6264801025391 C 151.4495544433594 141.7011108398438 154.3257446289062 143.4823913574219 157.305419921875 144.9208679199219 C 163.4911041259766 147.9071044921875 170.0541229248047 149.4212646484375 176.8121490478516 149.4212646484375 M 176.8121490478516 151.4212646484375 C 147.9196472167969 151.4212646484375 124.4140090942383 124.637939453125 124.4140090942383 91.71722412109375 C 124.4140090942383 58.78822326660156 147.9196472167969 31.99999046325684 176.8121490478516 31.99999046325684 C 205.7074279785156 31.99999046325684 229.2159118652344 58.78822326660156 229.2159118652344 91.71722412109375 C 229.2159118652344 124.637939453125 205.7074279785156 151.4212646484375 176.8121490478516 151.4212646484375 Z" stroke="none" fill="#bdd884"/>
    </g>
    <g id="Image_3" data-name="Image 3" transform="translate(-86.17 -44.205)" fill="#fff">
      <path d="M 329.2578430175781 179.4743347167969 C 324.7684936523438 179.4743347167969 320.3341369628906 178.7581329345703 316.0779418945312 177.3456268310547 L 315.924560546875 177.2947387695312 L 315.9232177734375 177.2947387695312 C 291.3677978515625 169.0248565673828 278.9761352539062 139.5577392578125 288.2960510253906 111.5160064697266 C 292.7254943847656 98.17488861083984 301.3957824707031 87.05337524414062 312.7098999023438 80.19985961914062 C 316.4822082519531 77.91553497314453 320.443603515625 76.16532135009766 324.4839477539062 74.99790191650391 C 328.4885864257812 73.84080505371094 332.5775146484375 73.25410461425781 336.63720703125 73.25410461425781 C 341.1631164550781 73.25410461425781 345.6476745605469 73.98147583007812 349.9662780761719 75.41602325439453 C 362.1863708496094 79.48011779785156 371.7662048339844 88.76000213623047 376.940673828125 101.5461196899414 C 381.9035034179688 113.8064193725586 382.1923828125 127.9070053100586 377.7540893554688 141.2504577636719 C 375.8681335449219 146.9235229492188 373.197998046875 152.2266693115234 369.8177795410156 157.0127258300781 C 366.5529479980469 161.6354675292969 362.6883544921875 165.6918029785156 358.3313598632812 169.0690460205078 C 354.0267944335938 172.4056396484375 349.3505554199219 174.9962310791016 344.4324645996094 176.7688598632812 C 339.4517517089844 178.5640716552734 334.3462524414062 179.4743347167969 329.2578430175781 179.4743347167969 Z" stroke="none"/>
      <path d="M 329.2578430175781 178.4743347167969 C 334.2303466796875 178.4743347167969 339.2217407226562 177.5840148925781 344.0934143066406 175.8281097412109 C 348.912841796875 174.0910339355469 353.4970703125 171.551025390625 357.7187194824219 168.2786865234375 C 361.9974060058594 164.962158203125 365.7933044433594 160.9776306152344 369.0009765625 156.4358215332031 C 372.3244934082031 151.7300109863281 374.9501647949219 146.5148315429688 376.8052062988281 140.9348449707031 C 381.1685485839844 127.8167343139648 380.8874816894531 113.9615020751953 376.0137023925781 101.921257019043 C 370.950927734375 89.41117095947266 361.5882568359375 80.33504486083984 349.6510620117188 76.36502838134766 C 345.4342651367188 74.96431732177734 341.0557861328125 74.25410461425781 336.6372375488281 74.25410461425781 C 332.6714782714844 74.25410461425781 328.6759033203125 74.82758331298828 324.7615356445312 75.95859527587891 C 320.8055725097656 77.10164642333984 316.925048828125 78.81642913818359 313.22802734375 81.05518341064453 C 302.1170043945312 87.78567504882812 293.5997314453125 98.71533966064453 289.2449951171875 111.8313827514648 C 286.9953308105469 118.6001815795898 285.9812622070312 125.5576095581055 286.2309875488281 132.5104064941406 C 286.4716186523438 139.2109527587891 287.8693542480469 145.6207733154297 290.3853149414062 151.5618438720703 C 292.8916625976562 157.4802398681641 296.3795471191406 162.6300506591797 300.7520141601562 166.8681640625 C 305.2045593261719 171.1838989257812 310.3886413574219 174.3631896972656 316.16455078125 176.3207550048828 L 316.3929138183594 176.3965301513672 C 320.5473022460938 177.7752532958984 324.8756713867188 178.4743347167969 329.2578430175781 178.4743347167969 M 329.2578430175781 180.4743347167969 C 324.7425842285156 180.4743347167969 320.2078552246094 179.7698822021484 315.7629699707031 178.2947387695312 L 315.7603454589844 178.2947387695312 C 290.5800476074219 169.9221496582031 277.8338317871094 139.8240966796875 287.3470764160156 111.2005996704102 C 291.8518371582031 97.63265991210938 300.6761169433594 86.32016754150391 312.1918029785156 79.34455108642578 C 319.9516296386719 74.64554595947266 328.3223266601562 72.25410461425781 336.6372375488281 72.25410461425781 C 341.2401428222656 72.25410461425781 345.8260803222656 72.98700714111328 350.2815246582031 74.46699523925781 C 362.7854919433594 78.62550354003906 372.5814514160156 88.10884094238281 377.8676452636719 101.1709823608398 C 382.9192199707031 113.650505065918 383.2161560058594 127.9974746704102 378.7029724121094 141.5660705566406 C 370.8669128417969 165.1372985839844 350.3301086425781 180.4743347167969 329.2578430175781 180.4743347167969 Z" stroke="none" fill="#bdd884"/>
    </g>
    <g id="Image_4" data-name="Image 4" transform="translate(-114.229 -83.865)" fill="#fff">
      <path d="M 418.150390625 299.8203735351562 C 409.2850646972656 299.8203735351562 400.982421875 297.1410217285156 394.1400146484375 292.072021484375 C 374.6842956542969 277.6673889160156 372.1701049804688 247.9390106201172 388.5352478027344 225.8023529052734 C 391.0940856933594 222.3460388183594 394.0253601074219 219.2004241943359 397.2472839355469 216.453369140625 C 400.3714599609375 213.7896423339844 403.7728271484375 211.4964141845703 407.3568115234375 209.6373596191406 C 414.3986206054688 205.9846954345703 422.0808410644531 204.0539855957031 429.5729675292969 204.0539855957031 C 438.4051208496094 204.0539855957031 446.6821899414062 206.7109832763672 453.5149230957031 211.7387542724609 L 453.5226440429688 211.7464141845703 L 453.58154296875 211.7900238037109 C 473.0373229980469 226.1969146728516 475.5517578125 255.9278106689453 459.1866149902344 278.0651550292969 C 456.6253662109375 281.5223388671875 453.6920471191406 284.6690368652344 450.4686889648438 287.4170532226562 C 447.3432312011719 290.0816650390625 443.9412536621094 292.3756408691406 440.3572998046875 294.2353210449219 C 433.3157653808594 297.8890991210938 425.63671875 299.8203735351562 418.150390625 299.8203735351562 Z" stroke="none"/>
      <path d="M 429.5689086914062 203.053955078125 L 429.5689086914062 205.053955078125 C 422.2375793457031 205.053955078125 414.7153930664062 206.946044921875 407.8154602050781 210.525634765625 C 404.2991333007812 212.349853515625 400.9614562988281 214.6004943847656 397.8951721191406 217.2150268554688 C 394.7312622070312 219.9128112792969 391.8523864746094 223.0023803710938 389.3393859863281 226.3968200683594 C 385.4020080566406 231.7228088378906 382.5025939941406 237.5735473632812 380.7217407226562 243.7865600585938 C 379.0057067871094 249.7733306884766 378.39599609375 255.838623046875 378.9094848632812 261.81396484375 C 379.4209289550781 267.7651062011719 381.0204772949219 273.32177734375 383.6637878417969 278.3296203613281 C 386.3899536132812 283.4944152832031 390.1147766113281 287.8475646972656 394.7352600097656 291.2684936523438 C 401.4041748046875 296.208984375 409.5010070800781 298.8203735351562 418.150390625 298.8203735351562 C 425.4771118164062 298.8203735351562 432.9968566894531 296.9279479980469 439.8966979980469 293.3477172851562 C 443.4134521484375 291.5228881835938 446.7520751953125 289.2715454101562 449.8199462890625 286.6560668945312 C 452.9856262207031 283.9571838378906 455.8669128417969 280.8662109375 458.3824462890625 277.470703125 C 474.4200744628906 255.7764129638672 471.9994506835938 226.6726989746094 452.9864501953125 212.5936889648438 L 452.8680114746094 212.5060119628906 L 452.8617248535156 212.4997253417969 C 446.2147827148438 207.6291198730469 438.1649169921875 205.0547485351562 429.5727844238281 205.053955078125 L 429.5689086914062 203.053955078125 M 429.5729675292969 203.0539855957031 C 438.3402709960938 203.0547790527344 446.9112548828125 205.6170349121094 454.168212890625 210.9779663085938 L 454.1766357421875 210.9863891601562 C 474.0764770507812 225.7221069335938 476.683837890625 256.07861328125 459.99072265625 278.6596069335938 C 449.3562622070312 293.01416015625 433.4443359375 300.8203735351562 418.150390625 300.8203735351562 C 409.375244140625 300.8203735351562 400.8010864257812 298.251220703125 393.5447387695312 292.8755493164062 C 373.6482543945312 278.1445922851562 371.0380249023438 247.7881622314453 387.7311401367188 225.2078857421875 C 398.3549194335938 210.8578491210938 414.2673034667969 203.0525817871094 429.5729675292969 203.0539855957031 Z" stroke="none" fill="#bdd884"/>
    </g>
  </g>
</svg>
