<?xml version="1.0" encoding="utf-8"?>
<!-- Generator: Adobe Illustrator 24.0.3, SVG Export Plug-In . SVG Version: 6.00 Build 0)  -->
<svg version="1.1" id="Layer_1" xmlns="http://www.w3.org/2000/svg" xmlns:xlink="http://www.w3.org/1999/xlink" x="0px" y="0px"
	 viewBox="0 0 30 17.5" style="enable-background:new 0 0 30 17.5;" xml:space="preserve">
<style type="text/css">
	.st0{fill:#046937;}
</style>
<g id="Group_12" transform="translate(0 -32)">
	<path id="Path_16" class="st0" d="M17.6,43.3c-1.1-1.7-3.4-2.2-5.1-1.1c-0.4,0.3-0.8,0.7-1.1,1.1l-1.6,2.6C9,47,9.3,48.4,10.4,49.1
		c0.7,0.4,1.5,0.5,2.2,0.2l0,0c1.2-0.5,2.5-0.5,3.7,0c0.3,0.1,0.6,0.2,0.9,0.2c0.2,0,0.4,0,0.5-0.1c1.3-0.3,2-1.5,1.8-2.8
		c-0.1-0.3-0.2-0.5-0.3-0.7L17.6,43.3z M18.3,48.1c-0.4,0.5-1.1,0.6-1.7,0.4c-1.4-0.6-3-0.6-4.4,0l0,0c-0.7,0.3-1.6,0-1.9-0.8
		c-0.2-0.4-0.1-0.9,0.1-1.3l1.6-2.6c0.8-1.3,2.6-1.7,3.9-0.8c0.3,0.2,0.6,0.5,0.8,0.8l1.6,2.6C18.8,46.9,18.7,47.6,18.3,48.1z"/>
	<path id="Path_17" class="st0" d="M10.1,43.3c0.5-0.2,0.9-0.6,1-1.1c0.2-0.5,0.2-1.1,0-1.6c-0.2-0.5-0.6-0.9-1-1.2
		c-0.5-0.3-1-0.3-1.5-0.1c-1,0.4-1.4,1.6-1,2.7c0.3,0.8,1.1,1.4,1.9,1.4C9.7,43.4,9.9,43.4,10.1,43.3z M8.4,41.7
		c-0.3-0.7,0-1.4,0.5-1.6C9,40.1,9.1,40,9.2,40c0.2,0,0.3,0,0.5,0.1c0.3,0.2,0.5,0.4,0.6,0.8c0.1,0.3,0.1,0.7,0,1
		c-0.1,0.3-0.3,0.5-0.5,0.6l0,0C9.3,42.7,8.7,42.3,8.4,41.7L8.4,41.7z"/>
	<path id="Path_18" class="st0" d="M13.3,41.3c1.2,0,2.2-1.1,2.2-2.5s-1-2.5-2.2-2.5s-2.2,1.1-2.2,2.5
		C11.1,40.2,12.1,41.3,13.3,41.3z M13.3,37.1c0.7,0,1.3,0.7,1.3,1.6s-0.6,1.6-1.3,1.6c-0.7,0-1.3-0.7-1.3-1.6S12.6,37.1,13.3,37.1z"
		/>
	<path id="Path_19" class="st0" d="M17.2,41.9L17.2,41.9c0.2,0.1,0.4,0.1,0.6,0.1c1,0,1.8-0.7,2.1-1.7c0.2-0.6,0.2-1.2,0-1.7
		c-0.4-1-1.4-1.5-2.4-1.1c-0.1,0-0.3,0.1-0.4,0.2c-0.5,0.3-0.9,0.8-1.1,1.4C15.6,40.3,16.1,41.6,17.2,41.9z M16.8,39.4
		c0.1-0.4,0.4-0.7,0.7-0.9c0.5-0.3,1.1-0.2,1.4,0.3c0.1,0.1,0.1,0.2,0.1,0.2c0.1,0.4,0.1,0.7,0,1.1c-0.2,0.8-0.9,1.2-1.6,1
		C16.9,40.9,16.6,40.1,16.8,39.4L16.8,39.4z"/>
	<path id="Path_20" class="st0" d="M21.9,41.6L21.9,41.6C21,41,19.7,41.3,19,42.2c-0.7,1-0.6,2.3,0.2,2.9c0.3,0.2,0.7,0.3,1,0.3
		c0.7,0,1.4-0.4,1.8-0.9C22.8,43.5,22.7,42.3,21.9,41.6z M21.4,44c-0.4,0.6-1.1,0.8-1.6,0.4c-0.5-0.3-0.5-1.1-0.1-1.6
		c0.2-0.3,0.6-0.6,1.1-0.6c0.2,0,0.4,0.1,0.5,0.2C21.8,42.7,21.8,43.4,21.4,44z"/>
</g>
</svg>
