<svg xmlns="http://www.w3.org/2000/svg" xmlns:xlink="http://www.w3.org/1999/xlink" width="419.777" height="415.901" viewBox="0 0 419.777 415.901">
  <defs>
    <filter id="Path_16" x="0" y="65.164" width="299.551" height="326.644" filterUnits="userSpaceOnUse">
      <feOffset dx="1" dy="8" input="SourceAlpha"/>
      <feGaussianBlur stdDeviation="5" result="blur"/>
      <feFlood flood-opacity="0.231"/>
      <feComposite operator="in" in2="blur"/>
      <feComposite in="SourceGraphic"/>
    </filter>
    <filter id="Path_17" x="110.105" y="0" width="159.733" height="155.416" filterUnits="userSpaceOnUse">
      <feOffset dx="1" dy="8" input="SourceAlpha"/>
      <feGaussianBlur stdDeviation="5" result="blur-2"/>
      <feFlood flood-opacity="0.231"/>
      <feComposite operator="in" in2="blur-2"/>
      <feComposite in="SourceGraphic"/>
    </filter>
    <pattern id="pattern" preserveAspectRatio="xMidYMid slice" width="100%" height="100%" viewBox="0 0 4608 2592">
      <image width="4608" height="2592" xlink:href="links/setup_expand.jpg"/>
    </pattern>
    <filter id="Image_2" x="192.011" y="49.446" width="182.524" height="175.452" filterUnits="userSpaceOnUse">
      <feOffset dx="1" dy="8" input="SourceAlpha"/>
      <feGaussianBlur stdDeviation="5" result="blur-3"/>
      <feFlood flood-opacity="0.231"/>
      <feComposite operator="in" in2="blur-3"/>
      <feComposite in="SourceGraphic"/>
    </filter>
    <pattern id="pattern-2" width="1" height="1" viewBox="53.404 2.823 97.69 108.22">
      <image preserveAspectRatio="xMidYMid slice" width="192.392" height="108.22" xlink:href="links/setup_insert.jpg"/>
    </pattern>
    <filter id="Image_3" x="223.793" y="162.203" width="169.367" height="164.273" filterUnits="userSpaceOnUse">
      <feOffset dx="1" dy="8" input="SourceAlpha"/>
      <feGaussianBlur stdDeviation="5" result="blur-4"/>
      <feFlood flood-opacity="0.231"/>
      <feComposite operator="in" in2="blur-4"/>
      <feComposite in="SourceGraphic"/>
    </filter>
    <pattern id="pattern-3" width="1" height="1" viewBox="45.813 2.505 94.252 97.766">
      <image preserveAspectRatio="xMidYMid slice" width="173.807" height="97.766" xlink:href="links/setup_retract.jpg"/>
    </pattern>
    <filter id="Image_4" x="177.918" y="259.162" width="158.439" height="156.739" filterUnits="userSpaceOnUse">
      <feOffset dx="1" dy="8" input="SourceAlpha"/>
      <feGaussianBlur stdDeviation="5" result="blur-5"/>
      <feFlood flood-opacity="0.231"/>
      <feComposite operator="in" in2="blur-5"/>
      <feComposite in="SourceGraphic"/>
    </filter>
  </defs>
  <g id="Group_132" data-name="Group 132" transform="translate(-989.223 -2629.122)">
    <g transform="matrix(1, 0, 0, 1, 989.22, 2629.12)" filter="url(#Path_16)">
      <path id="Path_16-2" data-name="Path 16" d="M258.114,253.947a86.866,86.866,0,0,0-146.275,0L73.156,314.293A54.984,54.984,0,0,0,141.576,394.3l.71-.316a108.088,108.088,0,0,1,86.087.316,54.684,54.684,0,0,0,22.063,4.668,55.37,55.37,0,0,0,12.308-1.4A54.991,54.991,0,0,0,296.8,314.29Z" transform="translate(348.35 -76.67) rotate(65)" fill="#bdd884"/>
    </g>
    <g transform="matrix(1, 0, 0, 1, 989.22, 2629.12)" filter="url(#Path_17)">
      <g id="Path_17-2" data-name="Path 17" transform="translate(333.78 -48.32) rotate(65)" fill="#fff">
        <path d="M 49.62483215332031 230.3550415039062 C 45.03975296020508 230.3550415039062 40.42663192749023 229.5704650878906 35.91361999511719 228.0231323242188 C 31.44460678100586 226.4908905029297 27.16978073120117 224.2445983886719 23.20786094665527 221.3467102050781 C 19.19252586364746 218.4097442626953 15.58662033081055 214.8667297363281 12.49030017852783 210.8160552978516 C 9.285739898681641 206.6237945556641 6.679433345794678 201.9524688720703 4.743753433227539 196.9318542480469 C -5.134846687316895 171.2174835205078 5.212900161743164 143.2275848388672 27.81105995178223 134.5388641357422 C 32.36359405517578 132.7842712402344 37.13735198974609 131.894775390625 42.00046157836914 131.894775390625 C 45.48356628417969 131.894775390625 49.0050048828125 132.3556518554688 52.46699523925781 133.2645721435547 C 55.96111297607422 134.1819305419922 59.41476821899414 135.5611572265625 62.73203277587891 137.3638763427734 C 73.52877044677734 143.2363891601562 82.06005859375 153.1786651611328 86.75405883789062 165.3590545654297 C 91.44390106201172 177.5451507568359 91.78251647949219 190.6433410644531 87.70738220214844 202.2403717041016 C 83.43744659423828 214.3786773681641 74.90190124511719 223.4388122558594 63.67317962646484 227.7514801025391 C 59.18903350830078 229.4792022705078 54.46282196044922 230.3550415039062 49.62483215332031 230.3550415039062 Z" stroke="none"/>
        <path d="M 49.62483215332031 229.3550415039062 C 54.33941650390625 229.3550415039062 58.94467544555664 228.501708984375 63.31464767456055 226.8179779052734 C 74.26514434814453 222.6121673583984 82.59300231933594 213.7657012939453 86.76393127441406 201.9088592529297 C 90.76039123535156 190.5357360839844 90.42539215087891 177.6828155517578 85.82094573974609 165.7186279296875 C 81.21223449707031 153.7595367431641 72.84263610839844 144.0015258789062 62.25453186035156 138.2425079345703 C 59.00787353515625 136.4781646728516 55.62944793701172 135.1287689208984 52.21306228637695 134.2317962646484 C 48.83391952514648 133.3446197509766 45.39791870117188 132.894775390625 42.0004768371582 132.894775390625 C 37.26081848144531 132.894775390625 32.60806274414062 133.7617797851562 28.16994667053223 135.4722442626953 C 6.086318016052246 143.963134765625 -4.00366735458374 171.3734283447266 5.676804065704346 196.5721130371094 C 7.578275203704834 201.5039978027344 10.13796138763428 206.092041015625 13.28477573394775 210.2087554931641 C 16.32294654846191 214.1833648681641 19.86017608642578 217.6591491699219 23.79823303222656 220.5395812988281 C 27.67887496948242 223.3780364990234 31.86420440673828 225.5776062011719 36.23794555664062 227.0771942138672 C 40.64634704589844 228.5886688232422 45.15034866333008 229.3550415039062 49.62483215332031 229.3550415039062 M 49.62483215332031 231.3550415039062 C 30.64001846313477 231.3550415039062 11.86144638061523 218.1730041503906 3.810689687728882 197.2915954589844 C -6.268410205841064 171.0552673339844 4.338860988616943 142.4922790527344 27.45219039916992 133.60546875 C 32.15272521972656 131.7938537597656 37.05478668212891 130.894775390625 42.0004768371582 130.894775390625 C 49.1434326171875 130.894775390625 56.37574005126953 132.7714996337891 63.20950317382812 136.4852294921875 C 74.21397399902344 142.4707336425781 82.90715789794922 152.5958557128906 87.68716430664062 164.9994506835938 C 92.46369171142578 177.4107971191406 92.80371856689453 190.7536010742188 88.65083312988281 202.5718994140625 C 84.28192901611328 214.9915161132812 75.53927612304688 224.2652282714844 64.03173065185547 228.6849975585938 C 59.33325958251953 230.4953002929688 54.47243118286133 231.3550415039062 49.62483215332031 231.3550415039062 Z" stroke="none" fill="#bdd884"/>
      </g>
    </g>
    <g transform="matrix(1, 0, 0, 1, 989.22, 2629.12)" filter="url(#Image_2)">
      <g id="Image_2-2" data-name="Image 2" transform="translate(290.67 -69.83) rotate(65)" fill="url(#pattern)">
        <path d="M 176.8121490478516 150.4212493896484 C 148.4711303710938 150.4212493896484 125.4140014648438 124.0867309570312 125.4140014648438 91.71722412109375 C 125.4140014648438 59.34043884277344 148.4711303710938 32.99999237060547 176.8121490478516 32.99999237060547 C 205.1562805175781 32.99999237060547 228.2159118652344 59.34043884277344 228.2159118652344 91.71722412109375 C 228.2159118652344 124.0867309570312 205.1562805175781 150.4212493896484 176.8121490478516 150.4212493896484 Z" stroke="none"/>
        <path d="M 176.8121490478516 149.4212646484375 C 183.5708923339844 149.4212646484375 190.1346130371094 147.9071044921875 196.3209991455078 144.9208374023438 C 199.3010101318359 143.4823608398438 202.1775054931641 141.7010345458984 204.87060546875 139.6264038085938 C 207.5436248779297 137.5672454833984 210.0589294433594 135.2015838623047 212.3466339111328 132.5951690673828 C 214.6384429931641 129.9841156005859 216.7201690673828 127.1105422973633 218.5339965820312 124.0543212890625 C 220.3677062988281 120.9645919799805 221.9431762695312 117.6616592407227 223.2166442871094 114.2372894287109 C 225.870361328125 107.1014251708984 227.2159118652344 99.52458953857422 227.2159118652344 91.71722412109375 C 227.2159118652344 83.90780639648438 225.8703460693359 76.32904052734375 223.2165832519531 69.19147491455078 C 221.9430999755859 65.76628875732422 220.3676300048828 62.46259307861328 218.5338897705078 59.37214279174805 C 216.7200775146484 56.31524276733398 214.6383209228516 53.4410400390625 212.3465118408203 50.82940673828125 C 210.0587768554688 48.22244262695312 207.5434722900391 45.85630798339844 204.8704528808594 43.79670715332031 C 202.1773529052734 41.72165679931641 199.3008728027344 39.94000625610352 196.3208618164062 38.50123977661133 C 190.1345367431641 35.51442337036133 183.5708618164062 33.99999237060547 176.8121490478516 33.99999237060547 C 170.0541534423828 33.99999237060547 163.4911956787109 35.51442337036133 157.3055572509766 38.5012092590332 C 154.3258972167969 39.93995666503906 151.44970703125 41.72160720825195 148.7569274902344 43.79665756225586 C 146.0842132568359 45.85622406005859 143.5691680908203 48.22235870361328 141.2817230224609 50.82932281494141 C 138.9901580810547 53.44095993041992 136.9086456298828 56.31515884399414 135.0950164794922 59.3720588684082 C 133.2615051269531 62.46250915527344 131.6861877441406 65.76620483398438 130.4128570556641 69.19139099121094 C 127.759407043457 76.32897186279297 126.4140090942383 83.90776062011719 126.4140090942383 91.71722412109375 C 126.4140090942383 99.52462768554688 127.759391784668 107.1014938354492 130.4128112792969 114.2373580932617 C 131.6861419677734 117.6617431640625 133.2614288330078 120.9646759033203 135.0949249267578 124.0544052124023 C 136.9085388183594 127.1106414794922 138.9900207519531 129.9841918945312 141.2815704345703 132.5952606201172 C 143.5690460205078 135.2016754150391 146.0840606689453 137.5673065185547 148.7567749023438 139.6264801025391 C 151.4495544433594 141.7011108398438 154.3257446289062 143.4823913574219 157.305419921875 144.9208679199219 C 163.4911041259766 147.9071044921875 170.0541229248047 149.4212646484375 176.8121490478516 149.4212646484375 M 176.8121490478516 151.4212646484375 C 147.9196472167969 151.4212646484375 124.4140090942383 124.637939453125 124.4140090942383 91.71722412109375 C 124.4140090942383 58.78822326660156 147.9196472167969 31.99999046325684 176.8121490478516 31.99999046325684 C 205.7074279785156 31.99999046325684 229.2159118652344 58.78822326660156 229.2159118652344 91.71722412109375 C 229.2159118652344 124.637939453125 205.7074279785156 151.4212646484375 176.8121490478516 151.4212646484375 Z" stroke="none" fill="#bdd884"/>
      </g>
    </g>
    <g transform="matrix(1, 0, 0, 1, 989.22, 2629.12)" filter="url(#Image_3)">
      <g id="Image_3-2" data-name="Image 3" transform="translate(281.25 -118.9) rotate(65)" fill="url(#pattern-2)">
        <path d="M 329.2578430175781 179.4743347167969 C 324.7684936523438 179.4743347167969 320.3341369628906 178.7581329345703 316.0779418945312 177.3456268310547 L 315.924560546875 177.2947387695312 L 315.9232177734375 177.2947387695312 C 291.3677978515625 169.0248565673828 278.9761352539062 139.5577392578125 288.2960510253906 111.5160064697266 C 292.7254943847656 98.17488861083984 301.3957824707031 87.05337524414062 312.7098999023438 80.19985961914062 C 316.4822082519531 77.91553497314453 320.443603515625 76.16532135009766 324.4839477539062 74.99790191650391 C 328.4885864257812 73.84080505371094 332.5775146484375 73.25410461425781 336.63720703125 73.25410461425781 C 341.1631164550781 73.25410461425781 345.6476745605469 73.98147583007812 349.9662780761719 75.41602325439453 C 362.1863708496094 79.48011779785156 371.7662048339844 88.76000213623047 376.940673828125 101.5461196899414 C 381.9035034179688 113.8064193725586 382.1923828125 127.9070053100586 377.7540893554688 141.2504577636719 C 375.8681335449219 146.9235229492188 373.197998046875 152.2266693115234 369.8177795410156 157.0127258300781 C 366.5529479980469 161.6354675292969 362.6883544921875 165.6918029785156 358.3313598632812 169.0690460205078 C 354.0267944335938 172.4056396484375 349.3505554199219 174.9962310791016 344.4324645996094 176.7688598632812 C 339.4517517089844 178.5640716552734 334.3462524414062 179.4743347167969 329.2578430175781 179.4743347167969 Z" stroke="none"/>
        <path d="M 329.2578430175781 178.4743347167969 C 334.2303466796875 178.4743347167969 339.2217407226562 177.5840148925781 344.0934143066406 175.8281097412109 C 348.912841796875 174.0910339355469 353.4970703125 171.551025390625 357.7187194824219 168.2786865234375 C 361.9974060058594 164.962158203125 365.7933044433594 160.9776306152344 369.0009765625 156.4358215332031 C 372.3244934082031 151.7300109863281 374.9501647949219 146.5148315429688 376.8052062988281 140.9348449707031 C 381.1685485839844 127.8167343139648 380.8874816894531 113.9615020751953 376.0137023925781 101.921257019043 C 370.950927734375 89.41117095947266 361.5882568359375 80.33504486083984 349.6510620117188 76.36502838134766 C 345.4342651367188 74.96431732177734 341.0557861328125 74.25410461425781 336.6372375488281 74.25410461425781 C 332.6714782714844 74.25410461425781 328.6759033203125 74.82758331298828 324.7615356445312 75.95859527587891 C 320.8055725097656 77.10164642333984 316.925048828125 78.81642913818359 313.22802734375 81.05518341064453 C 302.1170043945312 87.78567504882812 293.5997314453125 98.71533966064453 289.2449951171875 111.8313827514648 C 286.9953308105469 118.6001815795898 285.9812622070312 125.5576095581055 286.2309875488281 132.5104064941406 C 286.4716186523438 139.2109527587891 287.8693542480469 145.6207733154297 290.3853149414062 151.5618438720703 C 292.8916625976562 157.4802398681641 296.3795471191406 162.6300506591797 300.7520141601562 166.8681640625 C 305.2045593261719 171.1838989257812 310.3886413574219 174.3631896972656 316.16455078125 176.3207550048828 L 316.3929138183594 176.3965301513672 C 320.5473022460938 177.7752532958984 324.8756713867188 178.4743347167969 329.2578430175781 178.4743347167969 M 329.2578430175781 180.4743347167969 C 324.7425842285156 180.4743347167969 320.2078552246094 179.7698822021484 315.7629699707031 178.2947387695312 L 315.7603454589844 178.2947387695312 C 290.5800476074219 169.9221496582031 277.8338317871094 139.8240966796875 287.3470764160156 111.2005996704102 C 291.8518371582031 97.63265991210938 300.6761169433594 86.32016754150391 312.1918029785156 79.34455108642578 C 319.9516296386719 74.64554595947266 328.3223266601562 72.25410461425781 336.6372375488281 72.25410461425781 C 341.2401428222656 72.25410461425781 345.8260803222656 72.98700714111328 350.2815246582031 74.46699523925781 C 362.7854919433594 78.62550354003906 372.5814514160156 88.10884094238281 377.8676452636719 101.1709823608398 C 382.9192199707031 113.650505065918 383.2161560058594 127.9974746704102 378.7029724121094 141.5660705566406 C 370.8669128417969 165.1372985839844 350.3301086425781 180.4743347167969 329.2578430175781 180.4743347167969 Z" stroke="none" fill="#bdd884"/>
      </g>
    </g>
    <g transform="matrix(1, 0, 0, 1, 989.22, 2629.12)" filter="url(#Image_4)">
      <g id="Image_4-2" data-name="Image 4" transform="translate(305.34 -161.09) rotate(65)" fill="url(#pattern-3)">
        <path d="M 418.150390625 299.8203735351562 C 409.2850646972656 299.8203735351562 400.982421875 297.1410217285156 394.1400146484375 292.072021484375 C 374.6842956542969 277.6673889160156 372.1701049804688 247.9390106201172 388.5352478027344 225.8023529052734 C 391.0940856933594 222.3460388183594 394.0253601074219 219.2004241943359 397.2472839355469 216.453369140625 C 400.3714599609375 213.7896423339844 403.7728271484375 211.4964141845703 407.3568115234375 209.6373596191406 C 414.3986206054688 205.9846954345703 422.0808410644531 204.0539855957031 429.5729675292969 204.0539855957031 C 438.4051208496094 204.0539855957031 446.6821899414062 206.7109832763672 453.5149230957031 211.7387542724609 L 453.5226440429688 211.7464141845703 L 453.58154296875 211.7900238037109 C 473.0373229980469 226.1969146728516 475.5517578125 255.9278106689453 459.1866149902344 278.0651550292969 C 456.6253662109375 281.5223388671875 453.6920471191406 284.6690368652344 450.4686889648438 287.4170532226562 C 447.3432312011719 290.0816650390625 443.9412536621094 292.3756408691406 440.3572998046875 294.2353210449219 C 433.3157653808594 297.8890991210938 425.63671875 299.8203735351562 418.150390625 299.8203735351562 Z" stroke="none"/>
        <path d="M 429.5689086914062 203.053955078125 L 429.5689086914062 205.053955078125 C 422.2375793457031 205.053955078125 414.7153930664062 206.946044921875 407.8154602050781 210.525634765625 C 404.2991333007812 212.349853515625 400.9614562988281 214.6004943847656 397.8951721191406 217.2150268554688 C 394.7312622070312 219.9128112792969 391.8523864746094 223.0023803710938 389.3393859863281 226.3968200683594 C 385.4020080566406 231.7228088378906 382.5025939941406 237.5735473632812 380.7217407226562 243.7865600585938 C 379.0057067871094 249.7733306884766 378.39599609375 255.838623046875 378.9094848632812 261.81396484375 C 379.4209289550781 267.7651062011719 381.0204772949219 273.32177734375 383.6637878417969 278.3296203613281 C 386.3899536132812 283.4944152832031 390.1147766113281 287.8475646972656 394.7352600097656 291.2684936523438 C 401.4041748046875 296.208984375 409.5010070800781 298.8203735351562 418.150390625 298.8203735351562 C 425.4771118164062 298.8203735351562 432.9968566894531 296.9279479980469 439.8966979980469 293.3477172851562 C 443.4134521484375 291.5228881835938 446.7520751953125 289.2715454101562 449.8199462890625 286.6560668945312 C 452.9856262207031 283.9571838378906 455.8669128417969 280.8662109375 458.3824462890625 277.470703125 C 474.4200744628906 255.7764129638672 471.9994506835938 226.6726989746094 452.9864501953125 212.5936889648438 L 452.8680114746094 212.5060119628906 L 452.8617248535156 212.4997253417969 C 446.2147827148438 207.6291198730469 438.1649169921875 205.0547485351562 429.5727844238281 205.053955078125 L 429.5689086914062 203.053955078125 M 429.5729675292969 203.0539855957031 C 438.3402709960938 203.0547790527344 446.9112548828125 205.6170349121094 454.168212890625 210.9779663085938 L 454.1766357421875 210.9863891601562 C 474.0764770507812 225.7221069335938 476.683837890625 256.07861328125 459.99072265625 278.6596069335938 C 449.3562622070312 293.01416015625 433.4443359375 300.8203735351562 418.150390625 300.8203735351562 C 409.375244140625 300.8203735351562 400.8010864257812 298.251220703125 393.5447387695312 292.8755493164062 C 373.6482543945312 278.1445922851562 371.0380249023438 247.7881622314453 387.7311401367188 225.2078857421875 C 398.3549194335938 210.8578491210938 414.2673034667969 203.0525817871094 429.5729675292969 203.0539855957031 Z" stroke="none" fill="#bdd884"/>
      </g>
    </g>
    <text id="Get_Set" data-name="Get
Set" transform="translate(1178 2694.273)" fill="#f58131" font-size="32" font-family="BradyBunchRemastered, Brady Bunch Remastered" letter-spacing="0.05em"><tspan x="-22.748" y="0">Get</tspan><tspan x="-22.116" y="26">Set</tspan></text>
    <text id="Expand" transform="translate(1360 2729.273)" fill="#6cc5f0" font-size="20" font-family="BradyBunchRemastered, Brady Bunch Remastered" letter-spacing="0.05em"><tspan x="-27.29" y="0">Expand</tspan></text>
    <text id="Insert" transform="translate(1384 2855.273)" fill="#6cc5f0" font-size="20" font-family="BradyBunchRemastered, Brady Bunch Remastered" letter-spacing="0.05em"><tspan x="-24.634" y="0">Insert</tspan></text>
    <text id="Retract" transform="translate(1338 2958.273)" fill="#6cc5f0" font-size="20" font-family="BradyBunchRemastered, Brady Bunch Remastered" letter-spacing="0.05em"><tspan x="-31.706" y="0">Retract</tspan></text>
    <g id="Setup" transform="translate(618.635 2341.976)" style="isolation: isolate">
      <g id="Group_115" data-name="Group 115" style="isolation: isolate">
        <g id="Path_247" data-name="Path 247" fill="#6a6a6a" stroke-miterlimit="10">
          <path d="M 483.7160034179688 521.52001953125 C 480.9971923828125 521.52001953125 477.4010314941406 520.7247924804688 473.0274353027344 519.1563110351562 L 472.0123596191406 518.7922973632812 L 472.4517822265625 517.8075561523438 L 475.0487976074219 511.987548828125 L 475.5271911621094 510.9154663085938 L 476.5095520019531 511.5582580566406 C 479.5718383789062 513.56201171875 481.9241027832031 514.5780029296875 483.5010070800781 514.5780029296875 C 483.9570922851562 514.5780029296875 484.3778686523438 514.447021484375 484.787353515625 514.1776123046875 L 484.7924499511719 514.1742553710938 L 484.7976379394531 514.1709594726562 C 485.3139953613281 513.8402099609375 485.3139953613281 513.5814819335938 485.3139953613281 513.4710083007812 C 485.3139953613281 513.4649047851562 485.1460266113281 512.821044921875 482.4550476074219 512.1383056640625 C 478.6413269042969 511.1653442382812 476.0243835449219 509.1172485351562 474.6756286621094 506.0506286621094 C 474.2184448242188 505.0196228027344 473.9859924316406 504.0165405273438 473.9859924316406 503.0719909667969 C 473.9859924316406 501.8345642089844 474.3091430664062 500.7250061035156 474.9464111328125 499.7741394042969 C 475.568115234375 498.8465270996094 476.4941711425781 498.0674438476562 477.6989135742188 497.4585266113281 C 479.4854736328125 496.5582275390625 481.6279907226562 496.1019897460938 484.0679931640625 496.1019897460938 C 486.1541137695312 496.1019897460938 488.6235656738281 496.3777465820312 491.40771484375 496.9215698242188 L 492.525634765625 497.1399230957031 L 492.1643676757812 498.2201538085938 L 490.3093566894531 503.7671508789062 L 489.9570617675781 504.8206787109375 L 488.9462585449219 504.3599548339844 C 487.0290222167969 503.486083984375 485.4732055664062 503.0429992675781 484.3219909667969 503.0429992675781 C 483.8873596191406 503.0429992675781 483.4557800292969 503.1505126953125 483.0025634765625 503.3716735839844 C 482.7781372070312 503.4802551269531 482.5147705078125 503.6437072753906 482.5090942382812 503.8173217773438 C 482.5174865722656 503.8461608886719 482.6228637695312 504.1463012695312 483.4318237304688 504.65966796875 C 483.8451843261719 504.9244384765625 484.7915954589844 505.4174194335938 486.9729919433594 506.275390625 C 488.6754760742188 506.9509582519531 489.8702087402344 507.6045837402344 490.6283264160156 508.2747497558594 C 491.8364562988281 509.3419799804688 492.4888000488281 510.7763061523438 492.5670166015625 512.53759765625 C 492.6990356445312 515.3170166015625 491.4344787597656 517.8348388671875 488.8082885742188 520.0180053710938 C 487.6143493652344 521.0142822265625 485.9006042480469 521.52001953125 483.7160034179688 521.52001953125 Z" stroke="none"/>
          <path d="M 483.7160034179688 520.52001953125 C 485.6690063476562 520.52001953125 487.1539916992188 520.0960083007812 488.1690063476562 519.2490234375 C 490.552001953125 517.2680053710938 491.6849975585938 515.0449829101562 491.5679931640625 512.5819702148438 C 491.5020141601562 511.0960083007812 490.968994140625 509.9100036621094 489.9660034179688 509.0239868164062 C 489.302001953125 508.43701171875 488.1820068359375 507.8309936523438 486.6069946289062 507.2059936523438 C 484.7839965820312 506.489013671875 483.5469970703125 505.9209899902344 482.89599609375 505.5039978027344 C 481.9710083007812 504.9169921875 481.5090026855469 504.3569946289062 481.5090026855469 503.822998046875 C 481.5090026855469 503.2619934082031 481.8609924316406 502.81298828125 482.5639953613281 502.4729919433594 C 483.1499938964844 502.18701171875 483.7359924316406 502.0429992675781 484.3219909667969 502.0429992675781 C 485.6239929199219 502.0429992675781 487.3030090332031 502.5119934082031 489.3609924316406 503.4500122070312 L 491.2160034179688 497.9030151367188 C 488.4819946289062 497.3689880371094 486.0989990234375 497.1019897460938 484.0679931640625 497.1019897460938 C 481.7760009765625 497.1019897460938 479.8030090332031 497.5180053710938 478.1499938964844 498.3510131835938 C 476.0409851074219 499.4169921875 474.9859924316406 500.9909973144531 474.9859924316406 503.0719909667969 C 474.9859924316406 503.8779907226562 475.18701171875 504.7369995117188 475.5910034179688 505.6480102539062 C 476.8150024414062 508.4309997558594 479.1849975585938 510.2720031738281 482.7009887695312 511.1690063476562 C 485.1090087890625 511.7799987792969 486.3139953613281 512.5479736328125 486.3139953613281 513.4710083007812 C 486.3139953613281 514.0819702148438 485.9880065917969 514.5960083007812 485.3370056152344 515.0130004882812 C 484.7640075683594 515.3900146484375 484.1520080566406 515.5780029296875 483.5010070800781 515.5780029296875 C 481.7170104980469 515.5780029296875 479.2049865722656 514.5170288085938 475.9620056152344 512.39501953125 L 473.364990234375 518.2150268554688 C 477.6480102539062 519.7509765625 481.0989990234375 520.52001953125 483.7160034179688 520.52001953125 M 483.7160034179688 522.52001953125 C 480.8418884277344 522.52001953125 477.2351989746094 521.7276611328125 472.6898498535156 520.09765625 L 470.6597290039062 519.3695678710938 L 471.53857421875 517.4000244140625 L 474.1355895996094 511.5800476074219 L 475.0923767089844 509.4358825683594 L 477.0570678710938 510.7214660644531 C 477.1317138671875 510.7703247070312 477.2057189941406 510.8183898925781 477.2788696289062 510.8656311035156 C 475.726806640625 509.7215270996094 474.5504150390625 508.2484436035156 473.7615051269531 506.4560852050781 C 473.2469482421875 505.2948303222656 472.9859924316406 504.1562194824219 472.9859924316406 503.0719909667969 C 472.9859924316406 501.0867004394531 473.7253723144531 498.346435546875 477.247802734375 496.5660705566406 C 479.1763305664062 495.5942077636719 481.4702453613281 495.1019897460938 484.0679931640625 495.1019897460938 C 486.2183227539062 495.1019897460938 488.7522583007812 495.3839721679688 491.5994262695312 495.9401245117188 L 493.8352661132812 496.3768310546875 L 493.1127624511719 498.5373229980469 L 491.2577514648438 504.0843200683594 L 490.5531311035156 506.1913452148438 L 488.531494140625 505.2698974609375 C 486.351806640625 504.2763977050781 485.0671691894531 504.0519409179688 484.3648681640625 504.0432739257812 C 484.8458862304688 504.2977294921875 485.7307434082031 504.7122497558594 487.3389892578125 505.3447875976562 L 487.3418579101562 505.3458862304688 L 487.3446960449219 505.3470153808594 C 489.1536560058594 506.0648498535156 490.4443664550781 506.7774353027344 491.2906188964844 507.5255126953125 C 492.7085571289062 508.7781066894531 493.4741821289062 510.4479370117188 493.5658264160156 512.4885864257812 C 493.7131042480469 515.6007690429688 492.3275146484375 518.392822265625 489.4475402832031 520.7869873046875 C 488.0704040527344 521.9361572265625 486.1410827636719 522.52001953125 483.7160034179688 522.52001953125 Z M 479.1940002441406 512.0189208984375 C 481.5893249511719 513.3458862304688 482.8870544433594 513.5780029296875 483.5010070800781 513.5780029296875 C 483.5600280761719 513.5780029296875 483.6177978515625 513.5740966796875 483.6747131347656 513.5661010742188 C 483.3348999023438 513.4307250976562 482.8617553710938 513.273193359375 482.2091064453125 513.1076049804688 C 481.11279296875 512.827880859375 480.107421875 512.4646606445312 479.1940002441406 512.0189208984375 Z" stroke="none" fill="#fff"/>
        </g>
        <g id="Path_248" data-name="Path 248" fill="#6a6a6a" stroke-miterlimit="10">
          <path d="M 508.0614624023438 521.6903686523438 L 507.0694580078125 521.6759033203125 L 493.5924377441406 521.4798583984375 L 492.5854187011719 521.4652099609375 L 492.6072387695312 520.4583129882812 L 493.115234375 497.0023498535156 L 493.1366882324219 496.011474609375 L 494.1277160644531 496.0240783691406 L 507.9757385253906 496.2001037597656 L 508.9600219726562 496.2126159667969 L 508.9630126953125 497.1969909667969 L 508.9819946289062 503.4859924316406 L 508.9850769042969 504.506591796875 L 507.9646301269531 504.4888610839844 L 499.9979858398438 504.3505249023438 L 499.9979858398438 505.614013671875 L 506.635009765625 505.614013671875 L 507.6667175292969 505.614013671875 L 507.634521484375 506.6452026367188 L 507.478515625 511.6441955566406 L 507.4476318359375 512.6334228515625 L 506.4581604003906 512.61279296875 L 499.9979858398438 512.4780883789062 L 499.9979858398438 513.5819702148438 L 507.2210083007812 513.5819702148438 L 508.2437438964844 513.5819702148438 L 508.2207641601562 514.6044311523438 L 508.0837707519531 520.698486328125 L 508.0614624023438 521.6903686523438 Z" stroke="none"/>
          <path d="M 494.114990234375 497.0239868164062 L 493.6069946289062 520.47998046875 L 507.0840148925781 520.676025390625 L 507.2210083007812 514.5819702148438 L 498.9979858398438 514.5819702148438 L 498.9979858398438 511.4570007324219 L 506.47900390625 511.6130065917969 L 506.635009765625 506.614013671875 L 498.9979858398438 506.614013671875 L 498.9979858398438 503.3330078125 L 507.9819946289062 503.489013671875 L 507.9630126953125 497.2000122070312 L 494.114990234375 497.0239868164062 M 492.1583862304688 494.9989624023438 L 494.1404113769531 495.024169921875 L 507.9884338378906 495.2001953125 L 509.9570617675781 495.2252197265625 L 509.9630126953125 497.1939697265625 L 509.9819946289062 503.4829711914062 L 509.9881591796875 505.524169921875 L 508.6707153320312 505.5012817382812 L 508.634033203125 506.6763916015625 L 508.47802734375 511.6753845214844 L 508.4497375488281 512.5819702148438 L 509.2664794921875 512.5819702148438 L 509.2204895019531 514.626953125 L 509.08349609375 520.720947265625 L 509.0389099121094 522.7047119140625 L 507.054931640625 522.67578125 L 493.5779113769531 522.479736328125 L 491.5638427734375 522.450439453125 L 491.6074523925781 520.4366455078125 L 492.115478515625 496.9806518554688 L 492.1583862304688 494.9989624023438 Z" stroke="none" fill="#fff"/>
        </g>
        <g id="Path_249" data-name="Path 249" fill="#6a6a6a" stroke-miterlimit="10">
          <path d="M 524.2835083007812 522.5839233398438 L 523.1470336914062 522.4501342773438 L 518.0100708007812 521.8451538085938 L 517.1430053710938 521.7430419921875 L 517.127197265625 520.8701171875 L 516.8349609375 504.7336120605469 L 510.4116821289062 505.7457885742188 L 509.3233032226562 505.9172973632812 L 509.2577819824219 504.8174743652344 L 508.9447631835938 499.5634765625 L 508.8875427246094 498.6028137207031 L 509.8452758789062 498.5087890625 C 516.971435546875 497.8092041015625 523.6519775390625 497.2498474121094 529.701416015625 496.8462219238281 L 530.7970581054688 496.7731018066406 L 530.7676391601562 497.8707580566406 L 530.630615234375 502.9877624511719 L 530.6056518554688 503.9192199707031 L 529.6748046875 503.9600524902344 L 523.9675903320312 504.2103881835938 L 524.2638549804688 521.4397583007812 L 524.2835083007812 522.5839233398438 Z" stroke="none"/>
          <path d="M 529.7680053710938 497.843994140625 C 523.7130126953125 498.2479858398438 517.10400390625 498.8009643554688 509.9429931640625 499.5039672851562 L 510.2559814453125 504.7579956054688 L 517.8140258789062 503.5669555664062 L 518.1270141601562 520.8519897460938 L 523.2639770507812 521.4569702148438 L 522.9509887695312 503.2539672851562 L 529.6309814453125 502.9609985351562 L 529.7680053710938 497.843994140625 M 531.8260498046875 495.7022094726562 L 531.767333984375 497.8975219726562 L 531.6302490234375 503.0145263671875 L 531.5803833007812 504.87744140625 L 529.7186279296875 504.9591064453125 L 524.9841918945312 505.1666870117188 L 525.263671875 521.422607421875 L 525.3030395507812 523.7109375 L 523.030029296875 523.4432373046875 L 517.8931274414062 522.8382568359375 L 516.158935546875 522.634033203125 L 516.1273193359375 520.88818359375 L 515.85595703125 505.9002075195312 L 510.5673217773438 506.733642578125 L 508.3905639648438 507.07666015625 L 508.259521484375 504.8768920898438 L 507.946533203125 499.6228637695312 L 507.8320922851562 497.7015991210938 L 509.74755859375 497.5135498046875 C 516.8834838867188 496.81298828125 523.5745239257812 496.2527465820312 529.6348876953125 495.8484497070312 L 531.8260498046875 495.7022094726562 Z" stroke="none" fill="#fff"/>
        </g>
        <g id="Path_250" data-name="Path 250" fill="#6a6a6a" stroke-miterlimit="10">
          <path d="M 540.635009765625 522.0859985351562 C 539.7955322265625 522.0859985351562 538.8801879882812 521.9326782226562 537.914306640625 521.63037109375 C 533.8232421875 520.3535766601562 531.5571899414062 516.58349609375 531.1798706054688 510.4251708984375 L 530.4959106445312 499.3315124511719 L 530.43408203125 498.3288269042969 L 531.4370727539062 498.2716064453125 L 536.9060668945312 497.9596252441406 L 537.9844970703125 497.8981018066406 L 537.9628295898438 498.9780883789062 L 537.7151489257812 511.3153686523438 C 538.9804077148438 513.15283203125 539.6102294921875 513.3909301757812 539.7464599609375 513.4215087890625 C 539.8378295898438 513.3419189453125 540.213623046875 512.9205932617188 540.5126953125 511.2000427246094 C 540.78564453125 509.6298828125 540.9240112304688 507.3769836425781 540.9240112304688 504.5039978027344 C 540.9240112304688 502.8056945800781 540.8718872070312 500.7904052734375 540.76904296875 498.5141296386719 L 540.72021484375 497.4334716796875 L 541.8013916015625 497.4695434570312 L 547.0744018554688 497.6455383300781 L 548.0284423828125 497.6773986816406 L 548.0409545898438 498.6319274902344 C 548.1741943359375 508.8273620605469 547.542724609375 515.2694091796875 546.1105346679688 518.3262329101562 C 545.5430297851562 519.5426635742188 544.7962036132812 520.4797973632812 543.8914184570312 521.1102294921875 C 542.962158203125 521.7576904296875 541.8665161132812 522.0859985351562 540.635009765625 522.0859985351562 Z" stroke="none"/>
          <path d="M 540.635009765625 521.0859985351562 C 542.6909790039062 521.0859985351562 544.2150268554688 520.0239868164062 545.2050170898438 517.9019775390625 C 546.5590209960938 515.0120239257812 547.1710205078125 508.5929870605469 547.041015625 498.6449890136719 L 541.7680053710938 498.468994140625 C 541.8709716796875 500.7479858398438 541.9240112304688 502.7590026855469 541.9240112304688 504.5039978027344 C 541.9240112304688 511.1180114746094 541.2069702148438 514.426025390625 539.7750244140625 514.426025390625 C 538.97998046875 514.426025390625 537.958984375 513.4879760742188 536.708984375 511.6130065917969 L 536.9630126953125 498.9580078125 L 531.4940185546875 499.2699890136719 L 532.177978515625 510.364013671875 C 532.5289916992188 516.093017578125 534.541015625 519.530029296875 538.2130126953125 520.676025390625 C 539.0850219726562 520.948974609375 539.8930053710938 521.0859985351562 540.635009765625 521.0859985351562 M 540.635009765625 523.0859985351562 C 539.6941528320312 523.0859985351562 538.67822265625 522.9173583984375 537.6155395507812 522.584716796875 C 535.2991943359375 521.86181640625 533.4846801757812 520.40283203125 532.2240600585938 518.2489013671875 C 531.0628662109375 516.2650146484375 530.375732421875 513.6532592773438 530.1817016601562 510.486328125 L 529.497802734375 499.39306640625 L 529.3742065429688 497.3876647949219 L 531.380126953125 497.2732238769531 L 536.84912109375 496.9612426757812 L 539.0059814453125 496.8382263183594 L 538.9625854492188 498.9981384277344 L 538.7215576171875 511.008544921875 C 538.9703979492188 511.3559875488281 539.1829833984375 511.6230163574219 539.3604736328125 511.8276062011719 C 539.4452514648438 511.4922790527344 539.5357055664062 511.041748046875 539.6182250976562 510.4422912597656 C 539.8211059570312 508.968017578125 539.9240112304688 506.9700622558594 539.9240112304688 504.5039978027344 C 539.9240112304688 502.8206787109375 539.8721923828125 500.8205871582031 539.77001953125 498.5592651367188 L 539.6724243164062 496.39794921875 L 541.834716796875 496.4700927734375 L 547.1077270507812 496.6460876464844 L 549.015869140625 496.7097778320312 L 549.0408325195312 498.6188659667969 C 549.1065063476562 503.6414184570312 548.9818725585938 507.8440856933594 548.6704711914062 511.1100769042969 C 548.3394775390625 514.5816650390625 547.79833984375 517.0808715820312 547.01611328125 518.75048828125 C 546.373779296875 520.1272583007812 545.514404296875 521.1982421875 544.4630737304688 521.9307250976562 C 543.3628540039062 522.6973266601562 542.0748901367188 523.0859985351562 540.635009765625 523.0859985351562 Z" stroke="none" fill="#fff"/>
        </g>
        <g id="Path_251" data-name="Path 251" fill="#6a6a6a" stroke-miterlimit="10">
          <path d="M 555.2216186523438 522.0186157226562 L 554.2247924804688 521.9874877929688 L 549.2247924804688 521.8314819335938 L 548.2357788085938 521.8006591796875 L 548.2561645507812 520.8113403320312 L 548.7251586914062 498.0584106445312 L 548.74169921875 497.2585144042969 L 549.5256958007812 497.0990600585938 C 551.3140258789062 496.7354125976562 552.9711303710938 496.5509948730469 554.4509887695312 496.5509948730469 C 556.7557373046875 496.5509948730469 558.7140502929688 496.9930725097656 560.271484375 497.8649291992188 C 561.8740234375 498.7620239257812 563.07666015625 500.1197509765625 563.845947265625 501.900390625 C 564.2636108398438 502.8721923828125 564.4749755859375 503.8067932128906 564.4749755859375 504.6799926757812 C 564.4749755859375 506.5157775878906 563.5992431640625 508.1455993652344 561.8720703125 509.524169921875 C 560.390380859375 510.7068176269531 558.3153686523438 511.697509765625 555.54296875 512.5440063476562 L 555.2554321289062 521.0218505859375 L 555.2216186523438 522.0186157226562 Z M 555.9916381835938 503.5282287597656 L 555.9362182617188 505.0818481445312 C 556.8792724609375 504.6287231445312 557.2261352539062 504.3157043457031 557.3482055664062 504.1719360351562 C 557.2221069335938 504.0551452636719 556.8749389648438 503.8099975585938 555.9916381835938 503.5282287597656 Z" stroke="none"/>
          <path d="M 554.4509887695312 497.551025390625 C 553.031005859375 497.551025390625 551.4559936523438 497.7269897460938 549.7249755859375 498.0789794921875 L 549.2559814453125 520.8319702148438 L 554.2559814453125 520.9879760742188 L 554.5679931640625 511.7890014648438 C 560.5059814453125 510.0969848632812 563.4749755859375 507.7269897460938 563.4749755859375 504.6799926757812 C 563.4749755859375 503.93798828125 563.2919921875 503.14404296875 562.927978515625 502.2969970703125 C 561.5609741210938 499.1329956054688 558.7340087890625 497.551025390625 554.4509887695312 497.551025390625 M 554.8809814453125 506.614013671875 L 555.0369873046875 502.239013671875 C 557.2249755859375 502.7340087890625 558.343994140625 503.3590087890625 558.39599609375 504.114013671875 C 558.447998046875 504.8690185546875 557.2760009765625 505.7030029296875 554.8809814453125 506.614013671875 M 554.4509887695312 495.551025390625 C 556.9288330078125 495.551025390625 559.0514526367188 496.0359497070312 560.7599487304688 496.9923706054688 C 562.5584106445312 497.9991455078125 563.9055786132812 499.5170288085938 564.7639770507812 501.5037841796875 C 565.2362670898438 502.6028442382812 565.4749755859375 503.6702880859375 565.4749755859375 504.6799926757812 C 565.4749755859375 505.7780151367188 565.204833984375 506.8276062011719 564.672119140625 507.799560546875 C 564.1748046875 508.7068786621094 563.442626953125 509.5500793457031 562.495849609375 510.3057556152344 C 561.0415649414062 511.4665222167969 559.0772705078125 512.4462890625 556.5184326171875 513.2842407226562 L 556.2548217773438 521.0557861328125 L 556.1871948242188 523.0491943359375 L 554.193603515625 522.9869995117188 L 549.193603515625 522.8309936523438 L 547.2156372070312 522.769287109375 L 547.2564086914062 520.790771484375 L 547.7254028320312 498.0377807617188 L 547.7583618164062 496.4379272460938 L 549.3264770507812 496.1190795898438 C 551.18017578125 495.7421264648438 552.904296875 495.551025390625 554.4509887695312 495.551025390625 Z" stroke="none" fill="#fff"/>
        </g>
      </g>
    </g>
  </g>
</svg>
