<?xml version="1.0" encoding="utf-8"?>
<!-- Generator: Adobe Illustrator 24.0.3, SVG Export Plug-In . SVG Version: 6.00 Build 0)  -->
<svg version="1.1" id="Layer_1" xmlns="http://www.w3.org/2000/svg" xmlns:xlink="http://www.w3.org/1999/xlink" x="0px" y="0px"
	 viewBox="0 0 445 200" style="enable-background:new 0 0 445 200;" xml:space="preserve">
<style type="text/css">
	.st0{fill:#D2E3B6;}
</style>
<g transform="matrix(1, 0, 0, 1, 0, 0)">
	<path id="Subtraction_25-2" class="st0" d="M200.5,199.5c-20.1,0-40.2-1.4-60.2-4.3c-18.5-2.7-36.8-6.8-54.7-12.3
		c-16.3-5-32.2-11.4-47.4-19.2c-13.6-6.9-26.4-15.3-38.2-25V0h423.1c0.8,1,1.5,2,2.2,2.9c6,8.1,10.8,17.1,14.2,26.6
		c6.6,18.4,6.6,38.6,0,57c-3.4,9.5-8.2,18.4-14.2,26.6c-6.6,8.9-14.1,16.9-22.5,24c-9.3,7.9-19.2,14.9-29.8,20.9
		c-11.6,6.7-23.7,12.4-36.1,17.3c-13.5,5.3-27.4,9.6-41.5,13c-15.1,3.7-30.4,6.4-45.8,8.2C233.4,198.5,216.9,199.5,200.5,199.5z"/>
</g>
</svg>
