<?xml version="1.0" encoding="utf-8"?>
<!-- Generator: Adobe Illustrator 24.0.3, SVG Export Plug-In . SVG Version: 6.00 Build 0)  -->
<svg version="1.1" id="Layer_1" xmlns="http://www.w3.org/2000/svg" xmlns:xlink="http://www.w3.org/1999/xlink" x="0px" y="0px"
	 viewBox="0 0 858 292" style="enable-background:new 0 0 858 292;" xml:space="preserve">
<style type="text/css">
	.st0{fill:#FFFFFF;}
	.st1{fill:#6A6A6A;}
</style>
<g>
	<g>
		<path class="st0" d="M406.5,146.6c-7.3-6.7-17.1-10.7-27.7-10.7c-10.6,0-20.5,4-27.7,10.7c-7.2,6.7-12,16.4-12,27.1
			c0,10.7,4.8,20.4,12,27.1c7.3,6.7,17.1,10.7,27.7,10.7c10.6,0,20.5-4,27.7-10.7c7.3-6.7,12-16.4,12-27.1
			C418.5,163,413.7,153.3,406.5,146.6z M387.7,180.5c-2.1,2-5.3,3.4-8.9,3.4c-3.6,0-6.8-1.4-8.9-3.4c-2.1-2-3.2-4.3-3.2-6.8
			c0-2.5,1-4.8,3.2-6.8c2.1-2,5.3-3.4,8.9-3.3c3.6,0,6.8,1.4,8.9,3.3c2.1,2,3.2,4.3,3.2,6.8C390.8,176.2,389.8,178.5,387.7,180.5z"
			/>
		<path class="st0" d="M526.9,124.3c-7.3-6.7-17.1-10.7-27.7-10.7c-10.6,0-20.5,4-27.7,10.7c-7.2,6.7-12,16.4-12,27.1
			c0,10.7,4.8,20.4,12,27.1c7.2,6.7,17.1,10.7,27.7,10.7c10.6,0,20.5-4,27.7-10.7c7.2-6.7,12-16.4,12-27.1
			C539,140.7,534.2,131,526.9,124.3z M508.1,158.2c-2.1,2-5.3,3.4-8.9,3.4c-3.6,0-6.8-1.4-8.9-3.4c-2.1-2-3.2-4.3-3.2-6.8
			c0-2.5,1-4.8,3.2-6.8c2.1-2,5.3-3.4,8.9-3.4c3.6,0,6.8,1.4,8.9,3.4c2.1,2,3.2,4.3,3.2,6.8C511.3,153.9,510.3,156.2,508.1,158.2z"
			/>
		<path class="st0" d="M657.2,85.2c-7.3-6.7-17.1-10.7-27.7-10.7c-10.6,0-20.5,4-27.7,10.7c-7.2,6.7-12,16.4-12,27.1
			c0,10.7,4.8,20.4,12,27.1c7.3,6.7,17.1,10.7,27.7,10.7c10.6,0,20.5-4,27.7-10.7c7.2-6.7,12-16.4,12-27.1
			C669.2,101.6,664.4,91.9,657.2,85.2z M638.4,119.2c-2.1,2-5.3,3.4-8.9,3.4c-3.6,0-6.8-1.4-8.9-3.4c-2.1-2-3.2-4.3-3.2-6.8
			c0-2.5,1-4.8,3.2-6.8c2.1-2,5.3-3.4,8.9-3.4c3.6,0,6.8,1.4,8.9,3.4c2.1,2,3.2,4.3,3.2,6.8C641.5,114.9,640.5,117.2,638.4,119.2z"
			/>
		<path class="st0" d="M841.5,97.6l-2.5,1.1l0-3l0-0.4c0-1.9-0.1-9.4-1.4-20l-1.6-12.6l-15.7,0.6l-0.2-1.6L818.4,49l-12.7,0.7
			l-38.4,2.2l1.6,15.2l-3.6,1c-0.5-0.3-1-0.5-1.5-0.7l0,0c-8.1-3.8-16-5.3-22.9-5.3c-8.2,0-14.8,2-19.5,4c-3.9,1.7-6.5,3.4-7.7,4.3
			c-1.3,0.9-4.2,3-7.6,6.6c-0.1-0.3-0.3-0.5-0.4-0.8c-4.8-9.1-9.5-14.5-10.1-15.1l-0.5-0.6l-0.5-0.5c-9.6-8.7-19.3-14.7-28.8-18.5
			c-9.5-3.8-18.6-5.3-26.9-5.3c-13.2,0-24,3.7-31.8,7.5c-1.6-1.2-3.2-2-4.6-2.6c-2-0.8-3.5-1.2-4.3-1.3l-1.2-0.2h-28.4
			c-3.3,0-6.6,0.6-9.6,1.9c-4.4,1.9-7.6,5.2-9.3,7.9c-1.7,2.8-2.3,5-2.5,6.2l-0.3,1.3v30.4c-11.6-6.9-27.2-12.9-45.7-12.9
			c-5.3,0-10.7,0.5-16.4,1.6h0c-11.5,2.2-21.3,6.5-29.5,11.6c-2.8,1.8-5.5,3.7-7.9,5.6l-0.1-0.8c-1.4-9.5-4.8-17-9.2-22.5
			c-2.2-2.7-4.6-4.9-7.2-6.6c-2.6-1.7-5.2-2.9-8.4-3.5l-0.5-0.1l-1.3-0.1l-0.8-0.1h-0.8c-0.9,0-1.9,0.1-3.3,0.3
			c-0.4,0.1-0.9,0.2-1.4,0.4c1.5-2.1,2.5-4.2,3.1-6.1c1-3.1,1.2-5.6,1.2-7.3c0-0.8,0-1.4-0.1-1.8l-0.2-1.6l-0.6-1.6
			c-0.7-2-1.6-3.6-2.4-5c-1.5-2.5-3.2-4.7-4.9-6.7c-2.5-3-5.1-5.7-7.1-7.8c-0.7-0.7-1.3-1.3-1.8-1.8c0,0,0-0.1-0.1-0.1
			c-0.9-1.3-2.2-2.8-4.2-4.2c-0.6-0.4-1.4-0.9-2.2-1.2l-5.6-7.4L386,9.3l-0.6-0.5l-4.7-0.2l-0.1,3.2l-0.4,0.2V8.6
			c-3,0-5.5,0.6-7.6,1.4c-2.4,0.9-4.3,2-5.7,3l-2.6,0.5c-0.8,0.1-1.2,0.3-1.6,0.4c-1.4,0.4-3.2,1-7.6,2.6c-1.3,0.5-4.3,1.1-6.7,1.3
			c-1.1,0.1-2.1,0.2-2.9,0.2c-1-0.2-2.2-0.3-3.7-0.3c-1.1,0-2.3,0.1-3.9,0.4c-1.1,0.2-2.5,0.6-3.9,1.3c-2.2,1-4.8,2.9-6.7,5.7
			c-1.9,2.8-2.7,6.3-2.6,9c0,3.4,0.9,5.9,1.8,8.1l0,0c1.7,3.8,3.8,6.6,6,9.3c3.4,4,7.3,7.6,11.4,10.6c2,1.5,4.1,2.8,6.4,4
			c0.1,0.1,0.2,0.1,0.3,0.1c-0.1,1.7-0.2,3.4-0.2,5.1c0,2.6,0.1,5.3,0.3,7.8c-1.1-1.2-2.3-2.3-3.4-3.1c-3-2.1-5.7-2.9-7.7-3.4
			c-2-0.5-3.5-0.5-4.2-0.5l-0.2,0l-0.2,0c-9.5,0.3-16.9,0.8-22.7,1.6c-8.8,1.2-14.1,2.5-18.8,4.9c-2.3,1.2-4.6,2.9-6.5,5.4
			c-0.9,1.3-1.8,2.8-2.3,4.3c-0.2,0.4-0.3,0.9-0.4,1.4l-8.4,25.9l-22.2-29.8l-3-1.5c-4.9-2.5-10-3.7-14.8-3.7c-3.3,0-6.4,0.6-9,1.6
			c-4,1.5-6.9,3.6-8.8,5.4c-1.9,1.8-3,3.4-3.5,4.1l-0.8,1.2l-12.1,33l-19.4-27.7l-1.2-1.1c-11.9-10.6-24.4-17.3-36.3-21.3
			c-11.9-4-23.1-5.3-32.6-5.3c-15.5,0-26.6,3.4-29.8,4.5c-3,0.8-11,3.2-20,9.8c-5.3,3.9-10.9,9.2-15.7,16.4
			c-4.8,7.2-8.7,16.2-10.9,27c-0.6,3.1-0.9,6.1-0.9,9.1c0,5.9,1.2,11.5,3.1,16.7c3.4,9.1,9.1,16.6,15.6,23.1
			c4.9,4.9,10.3,9.2,15.8,13.2L13,224.7l9.9,12.3c16.4,20.3,32.2,31.5,44.4,37.4c10.1,4.9,17.6,6.3,20.8,6.6
			c10.9,2.5,20.9,3.6,30,3.6c23.2,0,40.3-7.4,51.1-15.1c9.9-7,14.8-14.1,16.1-16.2c0.9-1.3,3.3-5,5.8-10.5c1.2-2.8,2.5-6.2,3.6-9.9
			l0.8,0.7c2.4,2,5.1,3.6,8,4.7c2.9,1.1,5.9,1.6,8.7,1.6c3.6,0,6.9-0.8,9.5-1.9c4-1.7,6.6-3.8,8.5-5.5c1.9-1.7,2.9-3.1,3.3-3.6
			l1-1.4l14.7-34.8l22.8,30l2.3,1.4c5.8,3.5,11.9,5.4,17.6,5.3c3.3,0,6.3-0.6,8.9-1.5c3.9-1.4,6.8-3.5,8.7-5.2
			c1.5-1.4,2.5-2.6,3.1-3.4c1.1,1.4,2.3,2.8,3.5,4c10.4,11.2,22.3,18,33.3,21.7c11,3.8,21,4.7,28.5,4.7c6.2,0,10.7-0.7,12.5-1
			c12.2-1.2,22.7-4.8,31.5-9.4c13.4-7.1,22.6-16.7,28.6-24.4c0.1-0.2,0.2-0.3,0.3-0.5c3,1.8,6.6,3.7,10.6,5.4
			c9.8,4.3,22.7,8,38.8,9.1l0,0h0c1.4,0.1,2.7,0.1,4.1,0.1c9.9,0,19.1-2.2,27.1-5.4c5.7-2.3,10.9-5,15.5-7.8v5.2l8.2,3.6
			c12.2,5.4,22.9,7.6,31.8,7.6c8.9,0,16-2.2,20.9-4.7c4.9-2.5,7.6-5.3,8.5-6.3l3.4-3.8l0.9-30.6c7.5,2.2,14.6,3.1,21.3,3.1
			c16.8,0,30.2-5.9,39.1-11.6c9-5.7,13.9-11.4,14.5-12.1l0.2-0.2l0.2-0.2c6.2-7.9,10.8-16,13.8-23.9c1.1,0.8,2.3,1.7,3.7,2.6
			c6.7,4.2,16.8,8.4,29.8,8.3c7.7,0,16.3-1.4,25.6-4.8l11.8-4.3l-2.2-8.5l0.5,0.1l0.6-2c0.6,1.3,1.3,2.5,2.1,3.8
			c2.2,3.5,5.1,6.9,9.2,9.7c3.7,2.5,8.4,4.2,13.3,4.4c2,0.3,5.9,0.9,11.2,0.9c5.2,0,11.8-0.5,18.8-2.6l10.8-3.1L841.5,97.6z
			 M823.6,105.7L823.6,105.7L823.6,105.7L823.6,105.7z M380.1,12.7l0.3,0.7l-0.3,9.1V12.7z M69.9,190.7c5.3,3.8,10.8,7.1,16.1,10.2
			c10.9,6.3,21.3,11.1,27.7,14.5c0.8,0.4,1.4,0.8,2.1,1.1c-2.5,0.7-4.9,1-7.1,1.1c-3.9,0-7.8-0.9-11.5-2.5
			c-5.6-2.3-10.9-6.3-14.5-9.6c-1.8-1.7-3.3-3.2-4.2-4.2c-0.5-0.5-0.8-0.9-1-1.1l-0.2-0.2l0,0l0,0L69.9,190.7z M340.7,136.9
			L340.7,136.9l0.4-0.3c0.9-0.8,3.3-2.8,6.3-4.7c3-1.9,6.6-3.6,9.2-4.2l21.9-5.2l-6.2-7.3c1.1-0.9,2.1-1.9,3.1-3.1L404,127l0,0
			c0.4,0.2,4.9,2.6,9.5,5.5c2.3,1.5,4.6,3.1,6.3,4.4c0.8,0.7,1.5,1.3,1.9,1.7l0.3,0.3l13.7,22.4l10.6-24.3l0,0
			c0-0.1,3.5-7.6,10.7-15.3c3.6-3.9,8.1-7.9,13.6-11.2c5.5-3.3,11.9-6.1,19.5-7.5l0,0c3.9-0.7,7.6-1.1,11.1-1.1
			c12.6,0,23.4,4.2,32,9.3c8.6,5.1,14.8,11.2,17.3,14l23.6,25.4l-23.8,26.9l0,0l-0.2,0.3c-1.2,1.3-7.3,7.6-15.9,13.2
			c-4.3,2.8-9.2,5.4-14.3,7.3c-5.1,1.9-10.4,3-15.7,3c-0.8,0-1.6,0-2.3-0.1l0.1,0c-14.8-1-25.2-4.6-32.6-8.2
			c-3.7-1.8-6.6-3.6-8.9-5.2c-1.2-0.8-2.2-1.6-3.1-2.2c-0.9-0.7-1.7-1.3-2.6-2l-13.9-10.4l-7,15.8l0,0c0,0.1-3.7,7.8-11.3,15.4
			c-3.8,3.8-8.6,7.6-14.5,10.6c-5.9,3-12.8,5.3-21.2,6.1l-0.7,0.1l-0.6,0.1l0,0c-0.2,0-3.2,0.6-7.8,0.6c-6.9,0-17-1.2-26.9-6.4
			c-5-2.6-9.9-6.1-14.6-11.2c-4.7-5.1-9.2-11.7-13.1-20.6 M684.8,130.3c-2,5.6-5.2,11.7-10.2,18.2c-0.8,0.9-4.2,4.2-9.3,7.3
			c-5.8,3.5-13.6,6.6-23.2,6.6c-7.4,0-16.2-1.8-26.8-7.5l-0.2-0.1l-1.4-0.7l-19.5-9.8l-1.7,59.7c-1.4,0.4-3.2,0.7-5.6,0.7
			c-3.1,0-7.1-0.5-12.3-2.1v-51.3v-0.9v-83h13.8l-0.2,27l23.3-20.9c0.5-0.4,3.5-2.8,8-5c4.9-2.4,11.5-4.5,19.2-4.5
			c5,0,10.5,0.9,16.6,3.3c6,2.4,12.6,6.4,19.9,12.8c1.1,1.3,4,5.2,6.7,10.8c3,6.2,5.6,14.3,5.6,23.4
			C687.6,119.2,686.8,124.5,684.8,130.3z"/>
	</g>
	<path class="st1" d="M806.4,63.5l1.9,14l15.6-0.6c1.4,11.2,1.3,18.6,1.3,18.6L809,96.7l0.6,9.6c0.7,11.2,6.6,13.7,11.7,13.7
		c4.1,0,7.8-1.6,7.8-1.6l1.3,18c-5.4,1.6-10.7,2-15,2c-5.7,0-9.7-0.8-9.7-0.8c-19.5,0-19.5-39.6-19.5-39.6h-11l-0.6-18l9.1-2.4
		l-1.3-12.6L806.4,63.5"/>
	<path class="st1" d="M380.1,22.5l0.5,0c0,0,1.8,1.3,2.6,2.2l1,0.4c0.8,0,1.6-0.4,1.6-0.4s1.7,2.3,3.2,2.4c1.5,0.1,1.9,1.8,1.9,1.8
		s12,11,14.3,17.4c0,0,0.7,6.3-7.1,10.2c-1.4,0.7-2.5,1.2-3.2,1.6l0.6,1.4l1.3,1.2c0,0,3.3,5.9,4.5,10.8c0,0,3.3,3.3,4.7,4.2
		c1.5,0.9,5.8,3.3,10.2,10.2c4.4,6.9,6.5,14.4,6.5,14.4s13.5-6.4-1.9-24c0,0-3.7-3.1-1.4-3.1l0.8,0.1c3.7,0.7,11.4,6.1,13.6,21
		c0,0-2.1,14.4-23.3,20.4c0,0,19.1,10,23.3,16.8c0,0,15.1-34.6,53.8-42c4.8-0.9,9.3-1.3,13.7-1.3c31.4,0,53.2,20.9,59.5,27.8V58.3
		c0,0,1-4.8,7.8-4.8h27.2c0,0,6.6,1.1,6.5,9.6c0,0,14.6-13,36.5-13c13.3,0,29.3,4.8,46.5,20.3c0,0,36.4,40.7,0,87.1
		c0,0-16.2,18.8-43.2,18.8c-9.8,0-21-2.5-33.4-9.2l-1.2-0.6l-1.3,45.7c0,0-5.8,6.4-19.2,6.4c-6.7,0-15.4-1.6-26.2-6.4v-25.2
		c0,0-25.1,28.3-56.4,28.3c-1.1,0-2.1,0-3.2-0.1c-33.1-2.3-49.3-16.5-54.4-20.4c0,0-16,36.3-58.3,40.2c0,0-4.1,0.8-10.5,0.8
		c-16.8,0-49.5-5.6-67.3-46.5l-9.1,21.6c0,0-3.1,4.6-9.6,4.6c-2.8,0-6.3-0.9-10.5-3.4l-35.6-46.9l-23.3,55.3c0,0-4.2,5.6-10.3,5.6
		c-2.4,0-5-0.8-7.8-3.2l-66.1-92.5c0,0-11.2-6.1-22.1-6.1c-6.5,0-12.9,2.2-16.7,9.1c0,0-4.9,8.1,10.4,17.4
		c15.3,9.3,43.2,14.7,64.2,40.2c20.9,25.6,0,54.7,0,54.7s-15,25.1-55.7,25.1c-8.2,0-17.5-1-27.9-3.5c0,0-26.1-1.3-56.6-39l32.6-19.8
		c0,0,18,22.9,42.3,22.9c6.7,0,13.8-1.7,21.2-6.1c0,0,12.3-10.8-9.7-22.2c-22-11.4-77.9-35.7-70.6-72.1
		c7.2-36.4,36.9-42.6,36.9-42.6s10.4-3.9,25.8-3.9c16.5,0,38.7,4.5,59.7,23.1l33.7,48.1l20.7-56.5c0,0,3-4.7,9.5-4.7
		c2.4,0,5.2,0.6,8.6,2.3l36.3,48.6l16.9-52.3c0,0-1.1-6.2,37.6-7.2c0,0,8,0.1,6.5,9.6c-1.5,9.5-10.4,31.2-10.4,31.2
		s10.5-9.8,22-12.5c0,0-2.6-3.1,5.2-6.7c7.8-3.6,9.2-8,7.8-13.8c-1.4-5.8-3.9-30.3,0-35.4c0,0-1.8-3.6-6.5-3.6
		c-4.7,0-17.7-11-20.7-18c-1.9-4.3,0.5-5.1,2.6-5.1c1.3,0,2.6,0.3,2.6,0.3s9.1,0,15.6-2.4c6.5-2.4,7-2.4,7-2.4l6-1.2
		C372.8,25.9,376.2,22.5,380.1,22.5 M629.5,136.4c14.3,0,25.9-10.8,25.9-24s-11.6-24-25.9-24c-14.3,0-25.9,10.8-25.9,24
		S615.2,136.4,629.5,136.4 M499.2,175.4c14.3,0,25.9-10.8,25.9-24c0-13.2-11.6-24-25.9-24c-14.3,0-25.9,10.8-25.9,24
		C473.3,164.6,484.9,175.4,499.2,175.4 M378.8,197.7c14.3,0,25.9-10.8,25.9-24c0-13.2-11.6-24-25.9-24c-14.3,0-25.9,10.8-25.9,24
		C352.8,187,364.5,197.7,378.8,197.7"/>
	<path class="st1" d="M740.7,76c5,0,10.8,1,17.1,4c21.3,9.9,11.7,40.2,11.7,40.2l-38.2-5.4c4.7,5.6,11.7,7.1,17.6,7.1
		c6.4,0,11.6-1.7,11.6-1.7l3.9,15c-7.9,2.9-14.9,4-20.9,4c-20.1,0-29.7-12.4-29.7-12.4c-17.3-29.2,7.8-45,7.8-45S728.9,76,740.7,76
		 M751.2,103.4l0-1.3c0-0.3-0.2-6.7-5.4-9c-0.2,0-2.1-0.6-4.6-0.6c-2.3,0-5.1,0.4-7.4,2.1c-0.1,0.1-2.8,1.8-2.5,5.2l0.1,0.9
		L751.2,103.4"/>
</g>
</svg>
