<?xml version="1.0" encoding="utf-8"?>
<!-- Generator: Adobe Illustrator 24.0.3, SVG Export Plug-In . SVG Version: 6.00 Build 0)  -->
<svg version="1.1" id="Layer_1" xmlns="http://www.w3.org/2000/svg" xmlns:xlink="http://www.w3.org/1999/xlink" x="0px" y="0px"
	 viewBox="0 0 802 255.2" style="enable-background:new 0 0 802 255.2;" xml:space="preserve">
<style type="text/css">
	.st0{fill:#6A6A6A;}
</style>
<path class="st0" d="M775.4,45.1l1.9,14l15.6-0.6c1.4,11.2,1.3,18.6,1.3,18.6L778,78.4l0.6,9.6c0.7,11.2,6.6,13.7,11.7,13.7
	c4.1,0,7.8-1.6,7.8-1.6l1.3,18c-5.4,1.6-10.7,2-15,2c-5.7,0-9.7-0.8-9.7-0.8c-19.5,0-19.5-39.6-19.5-39.6h-11l-0.6-18l9.1-2.4
	l-1.3-12.6L775.4,45.1"/>
<path class="st0" d="M349.1,4.1l0.5,0c0,0,1.8,1.3,2.6,2.2l1,0.4c0.8,0,1.6-0.4,1.6-0.4s1.7,2.3,3.2,2.4c1.5,0.1,1.9,1.8,1.9,1.8
	s12,11,14.3,17.4c0,0,0.7,6.3-7.1,10.2c-1.4,0.7-2.5,1.2-3.2,1.6l0.6,1.4l1.3,1.2c0,0,3.3,5.9,4.5,10.8c0,0,3.3,3.3,4.7,4.2
	c1.5,0.9,5.8,3.3,10.2,10.2c4.4,6.9,6.5,14.4,6.5,14.4s13.5-6.4-1.9-24c0,0-3.7-3.1-1.4-3.1l0.8,0.1c3.7,0.7,11.4,6.1,13.6,21
	c0,0-2.1,14.4-23.3,20.4c0,0,19.1,10,23.3,16.8c0,0,15.1-34.6,53.8-42c4.8-0.9,9.3-1.3,13.7-1.3c31.4,0,53.2,20.9,59.5,27.8V39.9
	c0,0,1-4.8,7.8-4.8h27.2c0,0,6.6,1.1,6.5,9.6c0,0,14.6-13,36.5-13c13.3,0,29.3,4.8,46.5,20.3c0,0,36.4,40.7,0,87.1
	c0,0-16.2,18.8-43.2,18.8c-9.8,0-21-2.5-33.4-9.2l-1.2-0.6l-1.3,45.7c0,0-5.8,6.4-19.2,6.4c-6.7,0-15.4-1.6-26.2-6.4v-25.2
	c0,0-25.1,28.3-56.4,28.3c-1.1,0-2.1,0-3.2-0.1c-33.1-2.3-49.3-16.5-54.4-20.4c0,0-16,36.3-58.3,40.2c0,0-4.1,0.8-10.5,0.8
	c-16.8,0-49.5-5.6-67.3-46.5l-9.1,21.6c0,0-3.1,4.6-9.6,4.6c-2.8,0-6.3-0.9-10.5-3.4l-35.6-46.9l-23.3,55.3c0,0-4.2,5.6-10.3,5.6
	c-2.4,0-5-0.8-7.8-3.2L107.2,112c0,0-11.2-6.1-22.1-6.1c-6.5,0-12.9,2.2-16.7,9.1c0,0-4.9,8.1,10.4,17.4
	c15.3,9.3,43.2,14.7,64.2,40.2c20.9,25.6,0,54.7,0,54.7s-15,25.1-55.7,25.1c-8.2,0-17.5-1-27.9-3.5c0,0-26.1-1.3-56.6-39l32.6-19.8
	c0,0,18,22.9,42.3,22.9c6.7,0,13.8-1.7,21.2-6.1c0,0,12.3-10.8-9.7-22.2c-22-11.4-77.9-35.7-70.6-72.1c7.2-36.4,36.9-42.6,36.9-42.6
	s10.4-3.9,25.8-3.9c16.5,0,38.7,4.5,59.7,23.1l33.7,48.1l20.7-56.5c0,0,3-4.7,9.5-4.7c2.4,0,5.2,0.6,8.6,2.3l36.3,48.6l16.9-52.3
	c0,0-1.1-6.2,37.6-7.2c0,0,8,0.1,6.5,9.6c-1.5,9.5-10.4,31.2-10.4,31.2s10.5-9.8,22-12.5c0,0-2.6-3.1,5.2-6.7
	c7.8-3.6,9.2-8,7.8-13.8c-1.4-5.8-3.9-30.3,0-35.4c0,0-1.8-3.6-6.5-3.6c-4.7,0-17.7-11-20.7-18c-1.9-4.3,0.5-5.1,2.6-5.1
	c1.3,0,2.6,0.3,2.6,0.3s9.1,0,15.6-2.4c6.5-2.4,7-2.4,7-2.4l6-1.2C341.8,7.5,345.2,4.1,349.1,4.1 M598.5,118
	c14.3,0,25.9-10.8,25.9-24s-11.6-24-25.9-24c-14.3,0-25.9,10.8-25.9,24S584.2,118,598.5,118 M468.2,157c14.3,0,25.9-10.8,25.9-24
	c0-13.2-11.6-24-25.9-24c-14.3,0-25.9,10.8-25.9,24C442.3,146.3,453.9,157,468.2,157 M347.8,179.3c14.3,0,25.9-10.8,25.9-24
	c0-13.2-11.6-24-25.9-24c-14.3,0-25.9,10.8-25.9,24C321.8,168.6,333.5,179.3,347.8,179.3"/>
<path class="st0" d="M709.7,57.6c5,0,10.8,1,17.1,4c21.3,9.9,11.7,40.2,11.7,40.2l-38.2-5.4c4.7,5.6,11.7,7.1,17.6,7.1
	c6.4,0,11.6-1.7,11.6-1.7l3.9,15c-7.9,2.9-14.9,4-20.9,4c-20.1,0-29.7-12.4-29.7-12.4c-17.3-29.2,7.8-45,7.8-45
	S697.9,57.6,709.7,57.6 M720.2,85l0-1.3c0-0.3-0.2-6.7-5.4-9c-0.2,0-2.1-0.6-4.6-0.6c-2.3,0-5.1,0.4-7.4,2.1
	c-0.1,0.1-2.8,1.8-2.5,5.2l0.1,0.9L720.2,85"/>
</svg>
